<svg width="133" height="137" viewBox="0 0 133 137" fill="none" xmlns="http://www.w3.org/2000/svg">
<path d="M13.1211 0.502167C13.398 0.518915 13.6361 0.653586 13.8291 0.822479C14.9171 1.77433 18.8647 4.25016 23.8789 6.55685C28.864 8.85014 34.8159 10.9325 39.9531 11.1936C46.7699 9.44122 57.6511 8.57347 68 8.57346C73.2002 8.57345 78.2798 8.79217 82.6592 9.23166C86.9673 9.66401 90.6328 10.3139 93.0703 11.1926C98.2022 10.9264 104.144 8.84664 109.121 6.55685C114.135 4.25023 118.083 1.77438 119.171 0.822479C119.364 0.653586 119.602 0.518915 119.879 0.502167C120.169 0.484686 120.417 0.600404 120.607 0.771698C120.953 1.08312 121.17 1.62935 121.317 2.23752C121.622 3.49794 121.719 5.4632 121.543 7.85959C121.196 12.5976 119.77 19.1613 116.589 25.632C128.032 39.7453 132.5 60.7186 132.5 72.1985C132.5 107.287 102.932 135.698 66.5 135.698C30.0679 135.698 0.500182 107.287 0.5 72.1985C0.5 71.1294 0.538663 69.9776 0.618164 68.757C1.39103 56.8533 6.03124 38.4329 16.4102 25.632C13.229 19.1614 11.8044 12.5975 11.457 7.85959C11.2814 5.46322 11.3783 3.49793 11.6826 2.23752C11.8295 1.62937 12.0468 1.08313 12.3926 0.771698C12.5828 0.600419 12.8312 0.484726 13.1211 0.502167ZM98.4971 34.0461C96.6542 33.9009 94.7204 33.9762 92.707 34.3029C91.7149 34.4639 90.7044 34.6859 89.6768 34.9719C89.1631 35.1148 88.6452 35.274 88.123 35.4494C85.5121 36.3268 82.7975 37.6152 79.999 39.3684C79.4394 39.719 78.8767 40.0886 78.3105 40.4768C76.895 41.4472 75.4591 42.5359 74.0059 43.7502C73.4243 44.2362 72.84 44.7423 72.2529 45.2688C70.1991 47.1107 68.1125 49.2033 66 51.5647C64.1889 49.5404 62.396 47.7132 60.625 46.0725C59.7395 45.2522 58.8592 44.4789 57.9854 43.7502C54.49 40.8354 51.0924 38.6419 47.8262 37.0793C47.5538 36.949 47.2823 36.823 47.0117 36.7014C44.8493 35.7295 42.7466 35.0342 40.7139 34.5891C40.4598 34.5334 40.2069 34.4817 39.9551 34.4338C39.7031 34.3859 39.4519 34.3422 39.2021 34.302C38.1889 34.1387 37.1952 34.0379 36.2227 33.9963C35.7362 33.9755 35.255 33.9695 34.7793 33.9778C34.5416 33.9819 34.3053 33.99 34.0703 34.0012C33.6002 34.0236 33.1356 34.0596 32.6768 34.1096C31.7589 34.2096 30.8639 34.3638 29.9932 34.5686C29.5577 34.671 29.1283 34.7861 28.7051 34.9133C28.0704 35.104 27.4497 35.3218 26.8438 35.5656C26.44 35.7281 26.0429 35.9023 25.6523 36.0871C25.2616 36.2721 24.8772 36.4676 24.5 36.674C23.7454 37.087 23.0185 37.5422 22.3203 38.0354C21.7968 38.4051 21.2893 38.7961 20.7988 39.2072C20.4719 39.4814 20.1526 39.7645 19.8408 40.0559C19.6849 40.2016 19.531 40.3494 19.3789 40.4992C18.4712 41.3935 17.6326 42.3612 16.8672 43.3889C16.1018 44.4165 15.4097 45.5042 14.7959 46.6399C14.2843 47.5864 13.8271 48.566 13.4268 49.5715C13.0265 50.5768 12.6831 51.6079 12.3994 52.6574C12.3426 52.8676 12.2883 53.0786 12.2363 53.2903C12.1325 53.7129 12.0376 54.1381 11.9531 54.5656C11.0241 59.2705 11.2818 64.2484 12.9551 68.8752C13.031 69.0852 13.1096 69.2946 13.1914 69.5031C13.2733 69.712 13.3584 69.92 13.4463 70.1272C13.6219 70.5415 13.8092 70.9525 14.0088 71.3596C14.8072 72.9882 15.7982 74.5556 16.9932 76.0315C17.4414 76.585 17.9187 77.1253 18.4248 77.6516C18.762 78.0022 19.1122 78.3465 19.4756 78.6838C19.4792 78.688 19.4836 78.693 19.4883 78.6985C19.5065 78.7197 19.5336 78.7508 19.5684 78.7903C19.6381 78.8693 19.7412 78.9841 19.876 79.1281C20.1459 79.4166 20.5446 79.8252 21.0645 80.3108C21.8445 81.0394 22.8991 81.9437 24.2031 82.8781C24.4202 83.0337 24.6442 83.1903 24.875 83.3469C25.1061 83.5037 25.3443 83.6602 25.5889 83.8166C27.3 84.9111 29.3435 85.9841 31.6777 86.802C32.2964 87.0187 32.9359 87.2162 33.5947 87.3928C36.1319 88.073 38.9603 88.4244 42.0371 88.1965C42.4471 88.1661 42.8544 88.1505 43.2588 88.1487C43.6635 88.1468 44.0652 88.1588 44.4639 88.1838C44.8421 88.2075 45.2174 88.2439 45.5898 88.2903C45.806 88.3172 46.0213 88.3469 46.2354 88.3811C47.9839 88.6598 49.6622 89.1747 51.25 89.8459C51.4266 89.9206 51.6021 89.997 51.7764 90.0754C54.389 91.2505 56.7439 92.8354 58.7471 94.4612C59.0134 94.6773 59.2732 94.8943 59.5264 95.1106C59.7793 95.3267 60.0253 95.5426 60.2646 95.757C60.5041 95.9716 60.7366 96.1847 60.9619 96.3957C61.4123 96.8176 61.8344 97.2303 62.2256 97.6272C62.8126 98.2227 63.331 98.782 63.7744 99.2805C63.9221 99.4465 64.0617 99.6056 64.1924 99.757C64.5847 100.212 64.8996 100.597 65.1309 100.888C65.285 101.082 65.4025 101.234 65.4805 101.337C65.5193 101.388 65.5482 101.428 65.5674 101.454C65.5768 101.467 65.5843 101.476 65.5889 101.483C65.591 101.486 65.5927 101.488 65.5938 101.489L65.5947 101.491L66.0117 102.067L66.4131 101.481L66.4141 101.479C66.415 101.477 66.416 101.475 66.418 101.472C66.4223 101.466 66.4295 101.456 66.4385 101.444C66.4566 101.418 66.4846 101.378 66.5215 101.326C66.5952 101.224 66.7056 101.072 66.8516 100.878C67.1441 100.49 67.579 99.9354 68.1426 99.2717C69.2704 97.9435 70.9127 96.1838 72.9697 94.4563C76.7089 91.3162 81.764 88.3277 87.5615 88.1565C87.9614 88.1447 88.3647 88.1464 88.7715 88.1623C88.9748 88.1703 89.1789 88.1813 89.3838 88.1965C96.2738 88.7068 101.921 86.3183 105.832 83.8166C107.788 82.5653 109.316 81.2822 110.356 80.3108C110.876 79.8251 111.275 79.4167 111.545 79.1281C111.68 78.9841 111.783 78.8693 111.853 78.7903C111.887 78.7508 111.914 78.7197 111.933 78.6985C111.937 78.6934 111.941 78.6888 111.944 78.6848C120.717 70.5415 121.903 58.3867 117.861 48.8098C117.717 48.4687 117.568 48.1303 117.411 47.7961C117.137 47.2129 116.844 46.6402 116.53 46.0803C116.426 45.8937 116.32 45.7084 116.211 45.5246C115.342 44.0544 114.335 42.6769 113.205 41.4211C112.922 41.1071 112.632 40.8005 112.334 40.5022C111.885 40.0525 111.417 39.6215 110.934 39.2102C110.772 39.073 110.609 38.9376 110.444 38.8049C110.114 38.5397 109.777 38.2839 109.433 38.0373C109.26 37.9139 109.086 37.7926 108.91 37.674C108.734 37.5557 108.557 37.4397 108.378 37.3264C107.481 36.7587 106.539 36.2544 105.556 35.8195C105.163 35.6457 104.763 35.4822 104.357 35.3313C104.154 35.2558 103.949 35.1841 103.743 35.1145C102.712 34.7664 101.641 34.4927 100.532 34.301C100.31 34.2626 100.087 34.2273 99.8623 34.1955C99.413 34.1321 98.9579 34.0824 98.4971 34.0461Z" fill="#2C2117"/>
<path d="M13.1211 0.502167L13.1513 0.00307893L13.1511 0.00306944L13.1211 0.502167ZM13.8291 0.822479L13.4998 1.19877L13.4999 1.19879L13.8291 0.822479ZM23.8789 6.55685L23.6699 7.01109L23.6699 7.01109L23.8789 6.55685ZM39.9531 11.1936L39.9277 11.6929L40.0038 11.6968L40.0776 11.6778L39.9531 11.1936ZM68 8.57346L68 8.07346L68 8.07346L68 8.57346ZM82.6592 9.23166L82.7091 8.73416L82.7091 8.73416L82.6592 9.23166ZM93.0703 11.1926L92.9007 11.663L92.9956 11.6971L93.0962 11.6919L93.0703 11.1926ZM109.121 6.55685L109.33 7.0111L109.33 7.01109L109.121 6.55685ZM119.171 0.822479L119.5 1.1988L119.5 1.19877L119.171 0.822479ZM119.879 0.502167L119.849 0.00307329L119.849 0.00307898L119.879 0.502167ZM120.607 0.771698L120.942 0.400165L120.942 0.400121L120.607 0.771698ZM121.317 2.23752L121.803 2.12016L121.803 2.12012L121.317 2.23752ZM121.543 7.85959L122.042 7.89615L122.042 7.89614L121.543 7.85959ZM116.589 25.632L116.14 25.4114L115.999 25.6985L116.2 25.9469L116.589 25.632ZM132.5 72.1985L133 72.1985V72.1985H132.5ZM66.5 135.698L66.5 136.198H66.5V135.698ZM0.5 72.1985L0 72.1985L0 72.1985L0.5 72.1985ZM0.618164 68.757L1.11711 68.7895L1.11711 68.7894L0.618164 68.757ZM16.4102 25.632L16.7985 25.9469L17 25.6985L16.8589 25.4115L16.4102 25.632ZM11.457 7.85959L10.9584 7.89614L10.9584 7.89615L11.457 7.85959ZM11.6826 2.23752L11.1966 2.12012L11.1966 2.12016L11.6826 2.23752ZM12.3926 0.771698L12.058 0.400128L12.058 0.400177L12.3926 0.771698ZM98.4971 34.0461L98.5363 33.5477L98.5363 33.5477L98.4971 34.0461ZM92.707 34.3029L92.6269 33.8094L92.6269 33.8094L92.707 34.3029ZM89.6768 34.9719L89.5427 34.4902L89.5427 34.4902L89.6768 34.9719ZM88.123 35.4494L88.2823 35.9234L88.2823 35.9234L88.123 35.4494ZM79.999 39.3684L80.2645 39.7921L80.2645 39.7921L79.999 39.3684ZM78.3105 40.4768L78.0278 40.0644L78.0278 40.0644L78.3105 40.4768ZM74.0059 43.7502L74.3265 44.1339L74.3265 44.1339L74.0059 43.7502ZM72.2529 45.2688L71.9191 44.8965L71.9191 44.8965L72.2529 45.2688ZM66 51.5647L65.6274 51.8981L66 52.3146L66.3726 51.898L66 51.5647ZM60.625 46.0725L60.2852 46.4393L60.2852 46.4393L60.625 46.0725ZM57.9854 43.7502L58.3056 43.3662L58.3056 43.3662L57.9854 43.7502ZM47.8262 37.0793L47.6104 37.5304L47.6104 37.5304L47.8262 37.0793ZM47.0117 36.7014L47.2167 36.2453L47.2167 36.2453L47.0117 36.7014ZM40.7139 34.5891L40.6069 35.0775L40.6069 35.0775L40.7139 34.5891ZM39.9551 34.4338L40.0485 33.9426L40.0485 33.9426L39.9551 34.4338ZM39.2021 34.302L39.2817 33.8083L39.2817 33.8083L39.2021 34.302ZM36.2227 33.9963L36.244 33.4968L36.244 33.4968L36.2227 33.9963ZM34.7793 33.9778L34.7706 33.4778L34.7706 33.4778L34.7793 33.9778ZM34.0703 34.0012L34.0941 34.5006L34.0941 34.5006L34.0703 34.0012ZM32.6768 34.1096L32.6226 33.6125L32.6226 33.6125L32.6768 34.1096ZM29.9932 34.5686L30.1076 35.0553L30.1076 35.0553L29.9932 34.5686ZM28.7051 34.9133L28.5612 34.4345L28.5612 34.4345L28.7051 34.9133ZM26.8438 35.5656L27.0304 36.0295L27.0304 36.0295L26.8438 35.5656ZM25.6523 36.0871L25.4384 35.6352L25.4384 35.6352L25.6523 36.0871ZM24.5 36.674L24.74 37.1127L24.74 37.1127L24.5 36.674ZM22.3203 38.0354L22.0318 37.627L22.0318 37.627L22.3203 38.0354ZM20.7988 39.2072L21.1201 39.5904L21.1201 39.5904L20.7988 39.2072ZM19.8408 40.0559L19.4995 39.6905L19.4995 39.6905L19.8408 40.0559ZM19.3789 40.4992L19.028 40.1431L19.028 40.1431L19.3789 40.4992ZM16.8672 43.3889L16.4662 43.0902L16.4662 43.0902L16.8672 43.3889ZM14.7959 46.6399L15.2358 46.8776L15.2358 46.8776L14.7959 46.6399ZM13.4268 49.5715L12.9622 49.3865L12.9622 49.3865L13.4268 49.5715ZM12.3994 52.6574L12.8821 52.7879L12.8821 52.7879L12.3994 52.6574ZM12.2363 53.2903L11.7508 53.1709L11.7508 53.1709L12.2363 53.2903ZM11.9531 54.5656L12.4437 54.6625L12.4437 54.6625L11.9531 54.5656ZM12.9551 68.8752L12.4849 69.0453L12.4849 69.0453L12.9551 68.8752ZM13.1914 69.5031L13.6569 69.3205L13.6569 69.3205L13.1914 69.5031ZM13.4463 70.1272L12.986 70.3223L12.986 70.3223L13.4463 70.1272ZM14.0088 71.3596L14.4577 71.1395L14.4577 71.1395L14.0088 71.3596ZM16.9932 76.0315L16.6046 76.3461L16.6046 76.3461L16.9932 76.0315ZM18.4248 77.6516L18.7852 77.305L18.7852 77.305L18.4248 77.6516ZM19.4756 78.6838L19.8561 78.3594L19.8372 78.3372L19.8158 78.3174L19.4756 78.6838ZM19.4883 78.6985L19.8677 78.3728L19.8676 78.3727L19.4883 78.6985ZM19.5684 78.7903L19.1934 79.1211L19.1935 79.1211L19.5684 78.7903ZM19.876 79.1281L19.5109 79.4698L19.5109 79.4698L19.876 79.1281ZM21.0645 80.3108L20.7232 80.6762L20.7232 80.6762L21.0645 80.3108ZM24.2031 82.8781L23.9119 83.2846L23.9119 83.2846L24.2031 82.8781ZM24.875 83.3469L25.1557 82.9331L25.1557 82.9331L24.875 83.3469ZM25.5889 83.8166L25.3195 84.2378L25.3195 84.2378L25.5889 83.8166ZM31.6777 86.802L31.5124 87.2738L31.5124 87.2738L31.6777 86.802ZM33.5947 87.3928L33.7242 86.9098L33.7242 86.9098L33.5947 87.3928ZM42.0371 88.1965L42.0002 87.6979L42.0002 87.6979L42.0371 88.1965ZM43.2588 88.1487L43.2565 87.6487L43.2565 87.6487L43.2588 88.1487ZM44.4639 88.1838L44.4326 88.6828L44.4326 88.6828L44.4639 88.1838ZM45.5898 88.2903L45.6516 87.7941L45.6516 87.7941L45.5898 88.2903ZM46.2354 88.3811L46.1566 88.8748L46.1566 88.8748L46.2354 88.3811ZM51.25 89.8459L51.4447 89.3854L51.4447 89.3854L51.25 89.8459ZM51.7764 90.0754L51.5713 90.5314L51.5713 90.5314L51.7764 90.0754ZM58.7471 94.4612L59.0622 94.0729L59.0622 94.0729L58.7471 94.4612ZM59.5264 95.1106L59.8512 94.7304L59.8512 94.7304L59.5264 95.1106ZM60.2646 95.757L59.931 96.1294L59.931 96.1294L60.2646 95.757ZM60.9619 96.3957L61.3037 96.0308L61.3037 96.0308L60.9619 96.3957ZM62.2256 97.6272L61.8695 97.9782L61.8695 97.9782L62.2256 97.6272ZM63.7744 99.2805L64.148 98.9482L64.148 98.9482L63.7744 99.2805ZM64.1924 99.757L64.5709 99.4304L64.5709 99.4304L64.1924 99.757ZM65.1309 100.888L65.5223 100.577L65.5223 100.577L65.1309 100.888ZM65.4805 101.337L65.8791 101.035L65.8791 101.035L65.4805 101.337ZM65.5674 101.454L65.1654 101.752L65.1654 101.752L65.5674 101.454ZM65.5889 101.483L65.9923 101.187L65.992 101.187L65.5889 101.483ZM65.5938 101.489L66.041 101.266L66.0227 101.229L65.9989 101.196L65.5938 101.489ZM65.5947 101.491L65.1475 101.715L65.1658 101.752L65.1899 101.785L65.5947 101.491ZM66.0117 102.067L65.6069 102.36L66.0233 102.934L66.4242 102.349L66.0117 102.067ZM66.4131 101.481L66.8256 101.763L66.845 101.735L66.8603 101.704L66.4131 101.481ZM66.4141 101.479L66.0001 101.198L65.9816 101.226L65.9668 101.255L66.4141 101.479ZM66.418 101.472L66.0069 101.187L66.0068 101.187L66.418 101.472ZM66.4385 101.444L66.0289 101.157L66.0288 101.157L66.4385 101.444ZM66.5215 101.326L66.1151 101.035L66.1151 101.035L66.5215 101.326ZM66.8516 100.878L66.4524 100.577L66.4524 100.577L66.8516 100.878ZM68.1426 99.2717L67.7614 98.9481L67.7614 98.9481L68.1426 99.2717ZM72.9697 94.4563L72.6482 94.0734L72.6482 94.0734L72.9697 94.4563ZM87.5615 88.1565L87.5763 88.6562L87.5763 88.6562L87.5615 88.1565ZM88.7715 88.1623L88.791 87.6627L88.791 87.6627L88.7715 88.1623ZM89.3838 88.1965L89.4207 87.6979L89.4207 87.6979L89.3838 88.1965ZM105.832 83.8166L106.101 84.2378L106.101 84.2378L105.832 83.8166ZM110.356 80.3108L110.698 80.6762L110.698 80.6762L110.356 80.3108ZM111.545 79.1281L111.91 79.4698L111.91 79.4698L111.545 79.1281ZM111.853 78.7903L112.227 79.1211L112.227 79.1211L111.853 78.7903ZM111.933 78.6985L112.312 79.0241L112.312 79.0241L111.933 78.6985ZM111.944 78.6848L111.604 78.3183L111.583 78.3381L111.564 78.3603L111.944 78.6848ZM117.861 48.8098L117.401 49.0042L117.401 49.0042L117.861 48.8098ZM117.411 47.7961L117.864 47.5834L117.864 47.5834L117.411 47.7961ZM116.53 46.0803L116.094 46.3244L116.094 46.3244L116.53 46.0803ZM116.211 45.5246L116.641 45.2701L116.641 45.2701L116.211 45.5246ZM113.205 41.4211L112.833 41.7556L112.833 41.7556L113.205 41.4211ZM112.334 40.5022L112.688 40.1487L112.688 40.1487L112.334 40.5022ZM110.934 39.2102L111.257 38.8293L111.257 38.8293L110.934 39.2102ZM110.444 38.8049L110.131 39.1946L110.131 39.1946L110.444 38.8049ZM109.433 38.0373L109.724 37.6307L109.724 37.6307L109.433 38.0373ZM108.91 37.674L108.631 38.0888L108.631 38.0888L108.91 37.674ZM108.378 37.3264L108.645 36.9038L108.645 36.9038L108.378 37.3264ZM105.556 35.8195L105.353 36.2768L105.353 36.2768L105.556 35.8195ZM104.357 35.3313L104.532 34.8626L104.532 34.8626L104.357 35.3313ZM103.743 35.1145L103.583 35.5882L103.583 35.5882L103.743 35.1145ZM100.532 34.301L100.617 33.8083L100.617 33.8083L100.532 34.301ZM99.8623 34.1955L99.7924 34.6906L99.7924 34.6906L99.8623 34.1955ZM13.1211 0.502167L13.0909 1.00125C13.2196 1.00904 13.3564 1.07328 13.4998 1.19877L13.8291 0.822479L14.1584 0.44619C13.9157 0.233892 13.5764 0.0287916 13.1513 0.00307895L13.1211 0.502167ZM13.8291 0.822479L13.4999 1.19879C14.6431 2.19895 18.6436 4.69878 23.6699 7.01109L23.8789 6.55685L24.0879 6.10262C19.0859 3.80154 15.1911 1.34971 14.1583 0.446166L13.8291 0.822479ZM23.8789 6.55685L23.6699 7.01109C28.674 9.31309 34.695 11.427 39.9277 11.6929L39.9531 11.1936L39.9785 10.6942C34.9368 10.438 29.054 8.3872 24.0879 6.10261L23.8789 6.55685ZM39.9531 11.1936L40.0776 11.6778C46.8335 9.94115 57.6651 9.07347 68 9.07346L68 8.57346L68 8.07346C57.6371 8.07347 46.7064 8.94129 39.8286 10.7093L39.9531 11.1936ZM68 8.57346L68 9.07346C73.1875 9.07345 78.25 9.29169 82.6093 9.72916L82.6592 9.23166L82.7091 8.73416C78.3096 8.29265 73.2129 8.07345 68 8.07346L68 8.57346ZM82.6592 9.23166L82.6093 9.72916C86.9073 10.1605 90.5229 10.8057 92.9007 11.663L93.0703 11.1926L93.2399 10.7222C90.7428 9.82201 87.0274 9.16752 82.7091 8.73416L82.6592 9.23166ZM93.0703 11.1926L93.0962 11.6919C98.3233 11.4208 104.334 9.3096 109.33 7.0111L109.121 6.55685L108.912 6.10261C103.954 8.38368 98.0811 10.432 93.0444 10.6933L93.0703 11.1926ZM109.121 6.55685L109.33 7.01109C114.356 4.69885 118.357 2.19901 119.5 1.1988L119.171 0.822479L118.842 0.446157C117.809 1.34976 113.914 3.80162 108.912 6.10261L109.121 6.55685ZM119.171 0.822479L119.5 1.19877C119.644 1.07328 119.78 1.00904 119.909 1.00125L119.879 0.502167L119.849 0.00307898C119.424 0.0287919 119.084 0.233892 118.842 0.44619L119.171 0.822479ZM119.879 0.502167L119.909 1.00126C120.038 0.99347 120.16 1.04176 120.273 1.14328L120.607 0.771698L120.942 0.400121C120.674 0.159047 120.299 -0.0240978 119.849 0.0030733L119.879 0.502167ZM120.607 0.771698L120.273 1.14323C120.498 1.34636 120.688 1.76118 120.831 2.35491L121.317 2.23752L121.803 2.12012C121.653 1.49752 121.408 0.819886 120.942 0.400165L120.607 0.771698ZM121.317 2.23752L120.831 2.35488C121.118 3.54238 121.218 5.44845 121.044 7.82303L121.543 7.85959L122.042 7.89614C122.219 5.47795 122.125 3.4535 121.803 2.12016L121.317 2.23752ZM121.543 7.85959L121.044 7.82303C120.701 12.5031 119.291 19.0034 116.14 25.4114L116.589 25.632L117.038 25.8527C120.25 19.3191 121.69 12.6921 122.042 7.89615L121.543 7.85959ZM116.589 25.632L116.2 25.9469C127.552 39.9468 132 60.7974 132 72.1985H132.5H133C133 60.6399 128.512 39.5439 116.977 25.3172L116.589 25.632ZM132.5 72.1985L132 72.1985C132 106.992 102.675 135.198 66.5 135.198V135.698V136.198C103.19 136.198 133 107.581 133 72.1985L132.5 72.1985ZM66.5 135.698L66.5 135.198C30.3254 135.198 1.00018 106.992 1 72.1985L0.5 72.1985L0 72.1985C0.000183785 107.581 29.8103 136.198 66.5 136.198L66.5 135.698ZM0.5 72.1985H1C1 71.1413 1.03824 70.0004 1.11711 68.7895L0.618164 68.757L0.119221 68.7246C0.0390867 69.9548 0 71.1175 0 72.1985H0.5ZM0.618164 68.757L1.11711 68.7894C1.88585 56.9494 6.50607 38.6412 16.7985 25.9469L16.4102 25.632L16.0218 25.3172C5.55641 38.2246 0.896215 56.7573 0.119215 68.7247L0.618164 68.757ZM16.4102 25.632L16.8589 25.4115C13.7086 19.0036 12.2988 12.503 11.9557 7.82303L11.457 7.85959L10.9584 7.89615C11.31 12.692 12.7494 19.3192 15.9615 25.8526L16.4102 25.632ZM11.457 7.85959L11.9557 7.82304C11.7816 5.44846 11.8819 3.54237 12.1686 2.35488L11.6826 2.23752L11.1966 2.12016C10.8746 3.45349 10.7811 5.47797 10.9584 7.89614L11.457 7.85959ZM11.6826 2.23752L12.1686 2.35491C12.312 1.76122 12.5017 1.34636 12.7272 1.14322L12.3926 0.771698L12.058 0.400177C11.592 0.819895 11.347 1.49752 11.1966 2.12012L11.6826 2.23752ZM12.3926 0.771698L12.7271 1.14327C12.8398 1.04182 12.9618 0.993487 13.0911 1.00126L13.1211 0.502167L13.1511 0.00306944C12.7007 -0.0240351 12.3258 0.159016 12.058 0.400128L12.3926 0.771698ZM98.4971 34.0461L98.5363 33.5477C96.6524 33.3992 94.6785 33.4765 92.6269 33.8094L92.707 34.3029L92.7871 34.7965C94.7623 34.476 96.656 34.4026 98.4578 34.5446L98.4971 34.0461ZM92.707 34.3029L92.6269 33.8094C91.6161 33.9734 90.5876 34.1994 89.5427 34.4902L89.6768 34.9719L89.8108 35.4536C90.8213 35.1724 91.8138 34.9545 92.7871 34.7965L92.707 34.3029ZM89.6768 34.9719L89.5427 34.4902C89.0203 34.6356 88.494 34.7973 87.9638 34.9755L88.123 35.4494L88.2823 35.9234C88.7963 35.7507 89.3058 35.5941 89.8108 35.4536L89.6768 34.9719ZM88.123 35.4494L87.9638 34.9755C85.3119 35.8666 82.5618 37.1729 79.7336 38.9447L79.999 39.3684L80.2645 39.7921C83.0331 38.0576 85.7123 36.787 88.2823 35.9234L88.123 35.4494ZM79.999 39.3684L79.7336 38.9447C79.1677 39.2991 78.5993 39.6726 78.0278 40.0644L78.3105 40.4768L78.5933 40.8892C79.1542 40.5047 79.7111 40.1388 80.2645 39.7921L79.999 39.3684ZM78.3105 40.4768L78.0278 40.0644C76.5985 41.0442 75.15 42.1426 73.6853 43.3665L74.0059 43.7502L74.3265 44.1339C75.7682 42.9292 77.1915 41.8501 78.5933 40.8892L78.3105 40.4768ZM74.0059 43.7502L73.6853 43.3665C73.0991 43.8563 72.5104 44.3663 71.9191 44.8965L72.2529 45.2688L72.5868 45.641C73.1696 45.1183 73.7495 44.616 74.3265 44.1339L74.0059 43.7502ZM72.2529 45.2688L71.9191 44.8965C69.8505 46.7517 67.751 48.8574 65.6274 51.2313L66 51.5647L66.3726 51.898C68.474 49.5491 70.5477 47.4697 72.5868 45.641L72.2529 45.2688ZM66 51.5647L66.3726 51.2313C64.5519 49.1962 62.7481 47.3578 60.9648 45.7057L60.625 46.0725L60.2852 46.4393C62.0439 48.0686 63.8258 49.8845 65.6274 51.8981L66 51.5647ZM60.625 46.0725L60.9648 45.7057C60.0731 44.8795 59.1862 44.1005 58.3056 43.3662L57.9854 43.7502L57.6651 44.1342C58.5322 44.8573 59.406 45.6248 60.2852 46.4393L60.625 46.0725ZM57.9854 43.7502L58.3056 43.3662C54.7829 40.4286 51.3505 38.2111 48.042 36.6283L47.8262 37.0793L47.6104 37.5304C50.8342 39.0726 54.1972 41.2423 57.6651 44.1342L57.9854 43.7502ZM47.8262 37.0793L48.042 36.6283C47.7661 36.4963 47.491 36.3686 47.2167 36.2453L47.0117 36.7014L46.8067 37.1574C47.0736 37.2774 47.3415 37.4017 47.6104 37.5304L47.8262 37.0793ZM47.0117 36.7014L47.2167 36.2453C45.025 35.2603 42.8895 34.5537 40.8208 34.1007L40.7139 34.5891L40.6069 35.0775C42.6036 35.5148 44.6735 36.1987 46.8067 37.1574L47.0117 36.7014ZM40.7139 34.5891L40.8208 34.1007C40.5624 34.0441 40.3049 33.9914 40.0485 33.9426L39.9551 34.4338L39.8617 34.925C40.1089 34.972 40.3573 35.0228 40.6069 35.0775L40.7139 34.5891ZM39.9551 34.4338L40.0485 33.9426C39.7913 33.8937 39.5356 33.8493 39.2817 33.8083L39.2021 34.302L39.1226 34.7956C39.3683 34.8352 39.6148 34.8781 39.8617 34.925L39.9551 34.4338ZM39.2021 34.302L39.2817 33.8083C38.2496 33.642 37.2366 33.5392 36.244 33.4968L36.2227 33.9963L36.2013 34.4959C37.1539 34.5366 38.1281 34.6353 39.1226 34.7956L39.2021 34.302ZM36.2227 33.9963L36.244 33.4968C35.7476 33.4755 35.2564 33.4694 34.7706 33.4778L34.7793 33.9778L34.7879 34.4777C35.2536 34.4696 35.7248 34.4755 36.2013 34.4959L36.2227 33.9963ZM34.7793 33.9778L34.7706 33.4778C34.5273 33.482 34.2859 33.4904 34.0465 33.5018L34.0703 34.0012L34.0941 34.5006C34.3247 34.4896 34.5559 34.4817 34.7879 34.4777L34.7793 33.9778ZM34.0703 34.0012L34.0465 33.5018C33.5666 33.5246 33.0919 33.5614 32.6226 33.6125L32.6768 34.1096L32.7309 34.6066C33.1794 34.5578 33.6338 34.5225 34.0941 34.5006L34.0703 34.0012ZM32.6768 34.1096L32.6226 33.6125C31.6845 33.7147 30.7693 33.8724 29.8787 34.0818L29.9932 34.5686L30.1076 35.0553C30.9585 34.8552 31.8334 34.7044 32.7309 34.6066L32.6768 34.1096ZM29.9932 34.5686L29.8787 34.0818C29.4332 34.1866 28.994 34.3044 28.5612 34.4345L28.7051 34.9133L28.849 35.3921C29.2626 35.2679 29.6821 35.1553 30.1076 35.0553L29.9932 34.5686ZM28.7051 34.9133L28.5612 34.4345C27.9121 34.6295 27.2771 34.8523 26.6571 35.1018L26.8438 35.5656L27.0304 36.0295C27.6223 35.7913 28.2288 35.5785 28.849 35.3921L28.7051 34.9133ZM26.8438 35.5656L26.6571 35.1018C26.2439 35.2681 25.8377 35.4462 25.4384 35.6352L25.6523 36.0871L25.8662 36.5391C26.2481 36.3583 26.6361 36.1881 27.0304 36.0295L26.8438 35.5656ZM25.6523 36.0871L25.4384 35.6352C25.0391 35.8242 24.646 36.0242 24.26 36.2354L24.5 36.674L24.74 37.1127C25.1084 36.9111 25.484 36.72 25.8662 36.5391L25.6523 36.0871ZM24.5 36.674L24.26 36.2354C23.4883 36.6577 22.7452 37.1231 22.0318 37.627L22.3203 38.0354L22.6088 38.4438C23.2918 37.9613 24.0026 37.5162 24.74 37.1127L24.5 36.674ZM22.3203 38.0354L22.0318 37.627C21.4971 38.0047 20.9786 38.404 20.4776 38.8241L20.7988 39.2072L21.1201 39.5904C21.5999 39.1881 22.0965 38.8056 22.6088 38.4438L22.3203 38.0354ZM20.7988 39.2072L20.4776 38.8241C20.1435 39.1042 19.8176 39.3933 19.4995 39.6905L19.8408 40.0559L20.1822 40.4212C20.4877 40.1358 20.8002 39.8585 21.1201 39.5904L20.7988 39.2072ZM19.8408 40.0559L19.4995 39.6905C19.3402 39.8394 19.1831 39.9903 19.028 40.1431L19.3789 40.4992L19.7298 40.8554C19.8789 40.7086 20.0296 40.5638 20.1822 40.4212L19.8408 40.0559ZM19.3789 40.4992L19.028 40.1431C18.1015 41.0559 17.2463 42.0429 16.4662 43.0902L16.8672 43.3889L17.2682 43.6876C18.019 42.6796 18.8408 41.7312 19.7298 40.8554L19.3789 40.4992ZM16.8672 43.3889L16.4662 43.0902C15.6861 44.1375 14.9811 45.2457 14.356 46.4021L14.7959 46.6399L15.2358 46.8776C15.8383 45.7628 16.5175 44.6954 17.2682 43.6876L16.8672 43.3889ZM14.7959 46.6399L14.356 46.4021C13.8351 47.3659 13.3697 48.3632 12.9622 49.3865L13.4268 49.5715L13.8913 49.7565C14.2845 48.7688 14.7335 47.8068 15.2358 46.8776L14.7959 46.6399ZM13.4268 49.5715L12.9622 49.3865C12.5549 50.4097 12.2054 51.4589 11.9167 52.527L12.3994 52.6574L12.8821 52.7879C13.1608 51.7568 13.4981 50.7439 13.8913 49.7565L13.4268 49.5715ZM12.3994 52.6574L11.9167 52.527C11.8589 52.7411 11.8036 52.9558 11.7508 53.1709L12.2363 53.2903L12.7219 53.4096C12.773 53.2014 12.8263 52.9942 12.8821 52.7879L12.3994 52.6574ZM12.2363 53.2903L11.7508 53.1709C11.6452 53.6004 11.5486 54.0331 11.4626 54.4688L11.9531 54.5656L12.4437 54.6625C12.5265 54.243 12.6197 53.8253 12.7219 53.4096L12.2363 53.2903ZM11.9531 54.5656L11.4626 54.4688C10.5174 59.2554 10.7782 64.3261 12.4849 69.0453L12.9551 68.8752L13.4253 68.7052C11.7854 64.1707 11.5307 59.2857 12.4437 54.6625L11.9531 54.5656ZM12.9551 68.8752L12.4849 69.0453C12.5622 69.259 12.6423 69.4726 12.7259 69.6858L13.1914 69.5031L13.6569 69.3205C13.5769 69.1166 13.4999 68.9114 13.4253 68.7052L12.9551 68.8752ZM13.1914 69.5031L12.7259 69.6858C12.8096 69.8991 12.8965 70.1113 12.986 70.3223L13.4463 70.1272L13.9066 69.932C13.8204 69.7286 13.737 69.5249 13.6569 69.3205L13.1914 69.5031ZM13.4463 70.1272L12.986 70.3223C13.1651 70.7448 13.3561 71.1642 13.5598 71.5797L14.0088 71.3596L14.4577 71.1395C14.2623 70.7408 14.0788 70.3381 13.9066 69.932L13.4463 70.1272ZM14.0088 71.3596L13.5598 71.5797C14.3745 73.2414 15.3856 74.8406 16.6046 76.3461L16.9932 76.0315L17.3818 75.7168C16.2108 74.2706 15.2399 72.735 14.4577 71.1395L14.0088 71.3596ZM16.9932 76.0315L16.6046 76.3461C17.0619 76.9109 17.5486 77.4619 18.0644 77.9982L18.4248 77.6516L18.7852 77.305C18.2887 76.7888 17.8208 76.2591 17.3818 75.7168L16.9932 76.0315ZM18.4248 77.6516L18.0644 77.9982C18.4082 78.3556 18.7651 78.7065 19.1354 79.0502L19.4756 78.6838L19.8158 78.3174C19.4593 77.9865 19.1159 77.6488 18.7852 77.305L18.4248 77.6516ZM19.4756 78.6838L19.0951 79.0082C19.099 79.0128 19.1029 79.0172 19.1046 79.0192C19.107 79.022 19.1081 79.0232 19.109 79.0242L19.4883 78.6985L19.8676 78.3727C19.8638 78.3683 19.8603 78.3642 19.8584 78.3621C19.8559 78.3592 19.8558 78.359 19.8561 78.3594L19.4756 78.6838ZM19.4883 78.6985L19.1089 79.0241C19.1289 79.0474 19.1574 79.0803 19.1934 79.1211L19.5684 78.7903L19.9433 78.4594C19.9097 78.4214 19.8841 78.392 19.8677 78.3728L19.4883 78.6985ZM19.5684 78.7903L19.1935 79.1211C19.2661 79.2033 19.3725 79.3218 19.5109 79.4698L19.876 79.1281L20.2411 78.7865C20.11 78.6465 20.0102 78.5352 19.9433 78.4594L19.5684 78.7903ZM19.876 79.1281L19.5109 79.4698C19.7877 79.7656 20.1943 80.1822 20.7232 80.6762L21.0645 80.3108L21.4058 79.9454C20.8949 79.4682 20.5042 79.0677 20.2411 78.7865L19.876 79.1281ZM21.0645 80.3108L20.7232 80.6762C21.5165 81.4171 22.5877 82.3357 23.9119 83.2846L24.2031 82.8781L24.4944 82.4717C23.2105 81.5518 22.1726 80.6616 21.4057 79.9454L21.0645 80.3108ZM24.2031 82.8781L23.9119 83.2846C24.1322 83.4424 24.3597 83.6015 24.5943 83.7607L24.875 83.3469L25.1557 82.9331C24.9287 82.7791 24.7083 82.625 24.4944 82.4717L24.2031 82.8781ZM24.875 83.3469L24.5943 83.7607C24.8295 83.9202 25.0715 84.0792 25.3195 84.2378L25.5889 83.8166L25.8583 83.3954C25.6171 83.2411 25.3827 83.0871 25.1557 82.9331L24.875 83.3469ZM25.5889 83.8166L25.3195 84.2378C27.0574 85.3494 29.1356 86.4411 31.5124 87.2738L31.6777 86.802L31.8431 86.3301C29.5513 85.5271 27.5426 84.4727 25.8583 83.3954L25.5889 83.8166ZM31.6777 86.802L31.5124 87.2738C32.1431 87.4948 32.7946 87.696 33.4653 87.8757L33.5947 87.3928L33.7242 86.9098C33.0772 86.7364 32.4497 86.5426 31.8431 86.3301L31.6777 86.802ZM33.5947 87.3928L33.4653 87.8757C36.0511 88.569 38.936 88.9275 42.074 88.6951L42.0371 88.1965L42.0002 87.6979C38.9847 87.9212 36.2126 87.577 33.7242 86.9098L33.5947 87.3928ZM42.0371 88.1965L42.074 88.6951C42.4723 88.6656 42.8681 88.6504 43.261 88.6486L43.2588 88.1487L43.2565 87.6487C42.8408 87.6505 42.4218 87.6666 42.0002 87.6979L42.0371 88.1965ZM43.2588 88.1487L43.261 88.6486C43.6544 88.6469 44.0449 88.6585 44.4326 88.6828L44.4639 88.1838L44.4952 87.6848C44.0855 87.6591 43.6726 87.6468 43.2565 87.6487L43.2588 88.1487ZM44.4639 88.1838L44.4326 88.6828C44.7996 88.7059 45.1647 88.7412 45.5281 88.7864L45.5898 88.2903L45.6516 87.7941C45.2702 87.7466 44.8846 87.7092 44.4952 87.6848L44.4639 88.1838ZM45.5898 88.2903L45.5281 88.7864C45.7398 88.8128 45.9493 88.8418 46.1566 88.8748L46.2354 88.3811L46.3141 87.8873C46.0932 87.8521 45.8722 87.8215 45.6516 87.7941L45.5898 88.2903ZM46.2354 88.3811L46.1566 88.8748C47.8598 89.1464 49.4992 89.6487 51.0553 90.3065L51.25 89.8459L51.4447 89.3854C49.8252 88.7008 48.108 88.1733 46.3141 87.8873L46.2354 88.3811ZM51.25 89.8459L51.0553 90.3065C51.2285 90.3797 51.4006 90.4546 51.5713 90.5314L51.7764 90.0754L51.9815 89.6194C51.8036 89.5394 51.6246 89.4614 51.4447 89.3854L51.25 89.8459ZM51.7764 90.0754L51.5713 90.5314C54.1346 91.6843 56.4528 93.2431 58.432 94.8494L58.7471 94.4612L59.0622 94.0729C57.035 92.4278 54.6434 90.8167 51.9815 89.6194L51.7764 90.0754ZM58.7471 94.4612L58.432 94.8494C58.6948 95.0626 58.9513 95.2769 59.2016 95.4907L59.5264 95.1106L59.8512 94.7304C59.5951 94.5117 59.3321 94.292 59.0622 94.0729L58.7471 94.4612ZM59.5264 95.1106L59.2016 95.4907C59.4512 95.704 59.6943 95.9173 59.931 96.1294L60.2646 95.757L60.5983 95.3847C60.3564 95.1679 60.1074 94.9494 59.8512 94.7304L59.5264 95.1106ZM60.2646 95.757L59.931 96.1294C60.1677 96.3415 60.3975 96.5522 60.6201 96.7607L60.9619 96.3957L61.3037 96.0308C61.0757 95.8173 60.8405 95.6017 60.5983 95.3847L60.2646 95.757ZM60.9619 96.3957L60.6201 96.7607C61.0655 97.1778 61.4828 97.5859 61.8695 97.9782L62.2256 97.6272L62.5817 97.2762C62.1859 96.8747 61.7591 96.4573 61.3037 96.0308L60.9619 96.3957ZM62.2256 97.6272L61.8695 97.9782C62.45 98.5671 62.9625 99.1201 63.4008 99.6128L63.7744 99.2805L64.148 98.9482C63.6994 98.4439 63.1753 97.8784 62.5817 97.2762L62.2256 97.6272ZM63.7744 99.2805L63.4008 99.6128C63.547 99.7772 63.685 99.9344 63.8139 100.084L64.1924 99.757L64.5709 99.4304C64.4383 99.2768 64.2971 99.1157 64.148 98.9482L63.7744 99.2805ZM64.1924 99.757L63.8139 100.084C64.2013 100.533 64.5119 100.913 64.7394 101.199L65.1309 100.888L65.5223 100.577C65.2872 100.281 64.968 99.8904 64.5709 99.4304L64.1924 99.757ZM65.1309 100.888L64.7394 101.199C64.8913 101.39 65.0065 101.539 65.0818 101.639L65.4805 101.337L65.8791 101.035C65.7985 100.929 65.6786 100.774 65.5223 100.577L65.1309 100.888ZM65.4805 101.337L65.0818 101.639C65.1186 101.687 65.1425 101.721 65.1654 101.752L65.5674 101.454L65.9693 101.157C65.9539 101.136 65.9201 101.089 65.8791 101.035L65.4805 101.337ZM65.5674 101.454L65.1654 101.752C65.173 101.762 65.1795 101.77 65.1836 101.776C65.186 101.779 65.1868 101.78 65.1877 101.781C65.1885 101.782 65.1875 101.781 65.1857 101.778L65.5889 101.483L65.992 101.187C65.988 101.181 65.9843 101.177 65.9821 101.174C65.9801 101.171 65.9775 101.168 65.9763 101.166C65.9732 101.162 65.9712 101.159 65.9693 101.157L65.5674 101.454ZM65.5889 101.483L65.1854 101.778C65.1842 101.776 65.1833 101.775 65.1835 101.775C65.1836 101.775 65.1836 101.776 65.1838 101.776C65.184 101.776 65.1843 101.776 65.1846 101.777C65.1851 101.778 65.1867 101.78 65.1886 101.783L65.5938 101.489L65.9989 101.196C65.9997 101.198 66.0003 101.198 66.0006 101.199C66.0007 101.199 66.0009 101.199 66.001 101.199C66.001 101.199 66.0011 101.2 66.0011 101.2C66.0011 101.2 66.0011 101.2 66.001 101.199C66.001 101.199 66.0009 101.199 66.0008 101.199C66.0006 101.199 66.0003 101.198 65.9999 101.198C65.9985 101.196 65.9957 101.192 65.9923 101.187L65.5889 101.483ZM65.5938 101.489L65.1465 101.713L65.1475 101.715L65.5947 101.491L66.0419 101.268L66.041 101.266L65.5938 101.489ZM65.5947 101.491L65.1899 101.785L65.6069 102.36L66.0117 102.067L66.4165 101.773L65.9995 101.198L65.5947 101.491ZM66.0117 102.067L66.4242 102.349L66.8256 101.763L66.4131 101.481L66.0006 101.198L65.5992 101.784L66.0117 102.067ZM66.4131 101.481L66.8603 101.704L66.8613 101.702L66.4141 101.479L65.9668 101.255L65.9659 101.257L66.4131 101.481ZM66.4141 101.479L66.828 101.759C66.8367 101.746 66.8432 101.735 66.8474 101.728C66.8517 101.721 66.8549 101.715 66.8567 101.711C66.8585 101.708 66.8599 101.705 66.8601 101.705C66.8607 101.704 66.86 101.705 66.8595 101.706C66.8564 101.712 66.8459 101.732 66.8291 101.756L66.418 101.472L66.0068 101.187C65.9881 101.214 65.976 101.237 65.9718 101.246C65.9709 101.247 65.97 101.249 65.9703 101.249C65.9703 101.248 65.9706 101.248 65.971 101.247C65.9714 101.246 65.972 101.245 65.9729 101.244C65.9744 101.241 65.9774 101.235 65.9814 101.228C65.9854 101.221 65.9917 101.211 66.0001 101.198L66.4141 101.479ZM66.418 101.472L66.829 101.757C66.8264 101.76 66.8246 101.763 66.8252 101.762C66.8259 101.761 66.8263 101.76 66.8289 101.757C66.833 101.751 66.84 101.742 66.8481 101.73L66.4385 101.444L66.0288 101.157C66.028 101.158 66.0269 101.16 66.0241 101.163C66.0232 101.165 66.0204 101.168 66.0182 101.171C66.016 101.174 66.0117 101.18 66.0069 101.187L66.418 101.472ZM66.4385 101.444L66.8481 101.73C66.8656 101.705 66.8925 101.667 66.9279 101.618L66.5215 101.326L66.1151 101.035C66.0768 101.088 66.0477 101.13 66.0289 101.157L66.4385 101.444ZM66.5215 101.326L66.9278 101.618C66.9996 101.518 67.1076 101.369 67.2507 101.179L66.8516 100.878L66.4524 100.577C66.3036 100.774 66.1908 100.93 66.1151 101.035L66.5215 101.326ZM66.8516 100.878L67.2507 101.179C67.538 100.798 67.9669 100.251 68.5237 99.5953L68.1426 99.2717L67.7614 98.9481C67.1911 99.6198 66.7502 100.182 66.4524 100.577L66.8516 100.878ZM68.1426 99.2717L68.5237 99.5953C69.6384 98.2826 71.2609 96.5443 73.2913 94.8392L72.9697 94.4563L72.6482 94.0734C70.5644 95.8233 68.9025 97.6043 67.7614 98.9481L68.1426 99.2717ZM72.9697 94.4563L73.2913 94.8392C76.9908 91.7323 81.9398 88.8227 87.5763 88.6562L87.5615 88.1565L87.5468 87.6567C81.5881 87.8326 76.4269 90.9 72.6482 94.0734L72.9697 94.4563ZM87.5615 88.1565L87.5763 88.6562C87.9647 88.6448 88.3567 88.6465 88.752 88.6619L88.7715 88.1623L88.791 87.6627C88.3728 87.6464 87.958 87.6445 87.5468 87.6567L87.5615 88.1565ZM88.7715 88.1623L88.752 88.6619C88.9502 88.6697 89.1485 88.6804 89.3469 88.6951L89.3838 88.1965L89.4207 87.6979C89.2093 87.6822 88.9993 87.6708 88.791 87.6627L88.7715 88.1623ZM89.3838 88.1965L89.3469 88.6951C96.3769 89.2158 102.131 86.7776 106.101 84.2378L105.832 83.8166L105.563 83.3954C101.711 85.8591 96.1707 88.1978 89.4207 87.6979L89.3838 88.1965ZM105.832 83.8166L106.101 84.2378C108.088 82.967 109.64 81.6639 110.698 80.6762L110.356 80.3108L110.015 79.9454C108.993 80.9004 107.488 82.1636 105.563 83.3954L105.832 83.8166ZM110.356 80.3108L110.698 80.6762C111.227 80.1821 111.633 79.7656 111.91 79.4698L111.545 79.1281L111.18 78.7865C110.917 79.0677 110.526 79.4682 110.015 79.9454L110.356 80.3108ZM111.545 79.1281L111.91 79.4698C112.049 79.3218 112.155 79.2034 112.227 79.1211L111.853 78.7903L111.478 78.4594C111.411 78.5353 111.311 78.6464 111.18 78.7865L111.545 79.1281ZM111.853 78.7903L112.227 79.1211C112.264 79.0802 112.292 79.0474 112.312 79.0241L111.933 78.6985L111.553 78.3728C111.537 78.392 111.511 78.4213 111.478 78.4594L111.853 78.7903ZM111.933 78.6985L112.312 79.0241C112.316 79.0194 112.321 79.014 112.325 79.0093L111.944 78.6848L111.564 78.3603C111.561 78.3635 111.558 78.3673 111.553 78.3728L111.933 78.6985ZM111.944 78.6848L112.284 79.0512C121.237 70.7412 122.431 58.3518 118.322 48.6154L117.861 48.8098L117.401 49.0042C121.375 58.4216 120.197 70.3418 111.604 78.3183L111.944 78.6848ZM117.861 48.8098L118.322 48.6154C118.176 48.2695 118.024 47.9249 117.864 47.5834L117.411 47.7961L116.959 48.0088C117.112 48.3358 117.259 48.6679 117.401 49.0042L117.861 48.8098ZM117.411 47.7961L117.864 47.5834C117.585 46.9899 117.286 46.4067 116.967 45.8362L116.53 46.0803L116.094 46.3244C116.401 46.8737 116.689 47.4358 116.959 48.0088L117.411 47.7961ZM116.53 46.0803L116.967 45.8362C116.861 45.6465 116.752 45.4577 116.641 45.2701L116.211 45.5246L115.781 45.7791C115.887 45.9591 115.991 46.1409 116.094 46.3244L116.53 46.0803ZM116.211 45.5246L116.641 45.2701C115.756 43.7723 114.73 42.3678 113.577 41.0866L113.205 41.4211L112.833 41.7556C113.941 42.986 114.927 44.3365 115.781 45.7791L116.211 45.5246ZM113.205 41.4211L113.577 41.0866C113.288 40.7664 112.992 40.4534 112.688 40.1487L112.334 40.5022L111.98 40.8556C112.272 41.1475 112.556 41.4478 112.833 41.7556L113.205 41.4211ZM112.334 40.5022L112.688 40.1487C112.229 39.6895 111.752 39.2494 111.257 38.8293L110.934 39.2102L110.61 39.5911C111.083 39.9937 111.54 40.4156 111.98 40.8557L112.334 40.5022ZM110.934 39.2102L111.257 38.8293C111.093 38.6897 110.927 38.5513 110.758 38.4152L110.444 38.8049L110.131 39.1946C110.292 39.3239 110.451 39.4563 110.61 39.5911L110.934 39.2102ZM110.444 38.8049L110.758 38.4152C110.42 38.1441 110.076 37.8826 109.724 37.6307L109.433 38.0373L109.142 38.4439C109.479 38.6851 109.809 38.9353 110.131 39.1946L110.444 38.8049ZM109.433 38.0373L109.724 37.6307C109.548 37.5049 109.37 37.3809 109.189 37.2593L108.91 37.674L108.631 38.0888C108.802 38.2043 108.973 38.3229 109.142 38.4439L109.433 38.0373ZM108.91 37.674L109.189 37.2593C109.01 37.1385 108.829 37.0199 108.645 36.9038L108.378 37.3264L108.111 37.7489C108.286 37.8596 108.459 37.973 108.631 38.0888L108.91 37.674ZM108.378 37.3264L108.645 36.9038C107.727 36.3231 106.764 35.8072 105.758 35.3623L105.556 35.8195L105.353 36.2768C106.314 36.7016 107.234 37.1942 108.111 37.7489L108.378 37.3264ZM105.556 35.8195L105.758 35.3623C105.356 35.1847 104.948 35.0174 104.532 34.8626L104.357 35.3313L104.183 35.7999C104.579 35.9471 104.969 36.1067 105.353 36.2768L105.556 35.8195ZM104.357 35.3313L104.532 34.8626C104.323 34.7849 104.113 34.7115 103.903 34.6407L103.743 35.1145L103.583 35.5882C103.786 35.6567 103.986 35.7267 104.183 35.7999L104.357 35.3313ZM103.743 35.1145L103.903 34.6407C102.847 34.2845 101.751 34.0044 100.617 33.8083L100.532 34.301L100.447 34.7937C101.53 34.9809 102.576 35.2483 103.583 35.5882L103.743 35.1145ZM100.532 34.301L100.617 33.8083C100.391 33.7691 100.163 33.733 99.9322 33.7004L99.8623 34.1955L99.7924 34.6906C100.012 34.7216 100.23 34.7561 100.447 34.7937L100.532 34.301ZM99.8623 34.1955L99.9322 33.7004C99.4724 33.6355 99.007 33.5847 98.5363 33.5477L98.4971 34.0461L98.4578 34.5446C98.9087 34.5801 99.3536 34.6286 99.7924 34.6906L99.8623 34.1955Z" fill="black"/>
<circle cx="39.5001" cy="60.6981" r="13.5" stroke="#FF0000" stroke-width="8"/>
<circle cx="39.5001" cy="60.6981" r="13.5" stroke="black" stroke-width="8"/>
<circle cx="92.5001" cy="60.6981" r="13.5" stroke="#FF0000" stroke-width="8"/>
<circle cx="92.5001" cy="60.6981" r="13.5" stroke="black" stroke-width="8"/>
<path d="M65.1057 61.987C65.4742 61.2499 66.526 61.2499 66.8945 61.987L72.6057 73.4093C73.1688 74.5354 73.1687 75.8609 72.6057 76.987L66.8945 88.4093C66.526 89.1463 65.4742 89.1463 65.1057 88.4093L59.3945 76.987C58.8315 75.8609 58.8315 74.5354 59.3945 73.4093L65.1057 61.987Z" fill="#523D2A"/>
<path d="M65.1057 61.987C65.4742 61.2499 66.526 61.2499 66.8945 61.987L72.6057 73.4093C73.1688 74.5354 73.1687 75.8609 72.6057 76.987L66.8945 88.4093C66.526 89.1463 65.4742 89.1463 65.1057 88.4093L59.3945 76.987C58.8315 75.8609 58.8315 74.5354 59.3945 73.4093L65.1057 61.987Z" stroke="#FF0000"/>
<path d="M65.1057 61.987C65.4742 61.2499 66.526 61.2499 66.8945 61.987L72.6057 73.4093C73.1688 74.5354 73.1687 75.8609 72.6057 76.987L66.8945 88.4093C66.526 89.1463 65.4742 89.1463 65.1057 88.4093L59.3945 76.987C58.8315 75.8609 58.8315 74.5354 59.3945 73.4093L65.1057 61.987Z" stroke="#523D2A"/>
</svg>
