<svg width="133" height="136" viewBox="0 0 133 136" fill="none" xmlns="http://www.w3.org/2000/svg">
<path d="M1 72.1981C1 106.992 30.3254 135.198 66.5 135.198C102.675 135.198 132 106.992 132 72.1981C132 60.7289 127.5 39.6981 116 25.698C122.5 12.698 121.786 -0.801941 119.5 1.19808C117.214 3.1981 103.5 11.1981 93.0001 11.6981C83.5001 8.19812 53.5 8.19812 40 11.6981C29.5 11.1981 15.7857 3.19813 13.5 1.19811C11.2143 -0.801907 10.5 12.6981 17 25.6981M1 72.1981C1 60.6981 5.50013 39.698 17 25.6981M1 72.1981C1 60.7289 5.5 39.6982 17 25.6981M66.0001 52.3141C27.0001 8.19806 -2.99987 57.1981 19.8424 78.3433C19.8424 78.3433 28.5001 88.6979 42.0001 87.698C55.5001 86.6981 66.0001 101.198 66.0001 101.198C66.0001 101.198 75.921 86.6981 89.421 87.698C102.921 88.6979 111.579 78.3433 111.579 78.3433C134.421 57.1981 105 8.19806 66.0001 52.3141Z" stroke="#FF0000"/>
<path d="M1 72.1981C1 106.992 30.3254 135.198 66.5 135.198C102.675 135.198 132 106.992 132 72.1981C132 60.7289 127.5 39.6981 116 25.698C122.5 12.698 121.786 -0.801941 119.5 1.19808C117.214 3.1981 103.5 11.1981 93.0001 11.6981C83.5001 8.19812 53.5 8.19812 40 11.6981C29.5 11.1981 15.7857 3.19813 13.5 1.19811C11.2143 -0.801907 10.5 12.6981 17 25.6981M1 72.1981C1 60.6981 5.50013 39.698 17 25.6981M1 72.1981C1 60.7289 5.5 39.6982 17 25.6981M66.0001 52.3141C27.0001 8.19806 -2.99987 57.1981 19.8424 78.3433C19.8424 78.3433 28.5001 88.6979 42.0001 87.698C55.5001 86.6981 66.0001 101.198 66.0001 101.198C66.0001 101.198 75.921 86.6981 89.421 87.698C102.921 88.6979 111.579 78.3433 111.579 78.3433C134.421 57.1981 105 8.19806 66.0001 52.3141Z" stroke="black"/>
<circle cx="39.5001" cy="60.6981" r="13.5" stroke="#FF0000" stroke-width="8"/>
<circle cx="39.5001" cy="60.6981" r="13.5" stroke="black" stroke-width="8"/>
<circle cx="92.5001" cy="60.6981" r="13.5" stroke="#FF0000" stroke-width="8"/>
<circle cx="92.5001" cy="60.6981" r="13.5" stroke="black" stroke-width="8"/>
<path d="M65.1057 61.987C65.4742 61.2499 66.526 61.2499 66.8945 61.987L72.6057 73.4093C73.1687 74.5354 73.1687 75.8609 72.6057 76.987L66.8945 88.4093C66.526 89.1463 65.4742 89.1463 65.1057 88.4093L59.3945 76.987C58.8315 75.8609 58.8315 74.5354 59.3945 73.4093L65.1057 61.987Z" fill="#523D2A"/>
<path d="M65.1057 61.987C65.4742 61.2499 66.526 61.2499 66.8945 61.987L72.6057 73.4093C73.1687 74.5354 73.1687 75.8609 72.6057 76.987L66.8945 88.4093C66.526 89.1463 65.4742 89.1463 65.1057 88.4093L59.3945 76.987C58.8315 75.8609 58.8315 74.5354 59.3945 73.4093L65.1057 61.987Z" stroke="#FF0000"/>
<path d="M65.1057 61.987C65.4742 61.2499 66.526 61.2499 66.8945 61.987L72.6057 73.4093C73.1687 74.5354 73.1687 75.8609 72.6057 76.987L66.8945 88.4093C66.526 89.1463 65.4742 89.1463 65.1057 88.4093L59.3945 76.987C58.8315 75.8609 58.8315 74.5354 59.3945 73.4093L65.1057 61.987Z" stroke="#523D2A"/>
</svg>
